<?xml version="1.0" standalone="no"?>
<!DOCTYPE svg PUBLIC "-//W3C//DTD SVG 20010904//EN"
 "http://www.w3.org/TR/2001/REC-SVG-20010904/DTD/svg10.dtd">
<svg version="1.0" xmlns="http://www.w3.org/2000/svg"
 width="210.000000pt" height="210.000000pt" viewBox="0 0 210.000000 210.000000"
 preserveAspectRatio="xMidYMid meet">
<metadata>
Created by potrace 1.11, written by Peter Selinger 2001-2013
</metadata>
<g transform="translate(0.000000,210.000000) scale(0.100000,-0.100000)"
fill="#000000" stroke="none">
<path d="M969 2096 c-2 -2 -26 -6 -54 -10 -108 -12 -285 -70 -351 -113 -22
-14 -28 -14 -62 0 -59 24 -135 16 -185 -19 -122 -85 -112 -271 19 -335 135
-65 284 27 284 176 0 44 1 45 50 70 320 162 732 97 989 -157 184 -180 274
-404 265 -657 -2 -58 -10 -133 -19 -166 -8 -33 -17 -69 -20 -79 -10 -42 -78
-172 -121 -233 -113 -158 -270 -271 -457 -328 -82 -25 -223 -47 -239 -38 -7 4
-12 -19 -9 -39 0 -3 -6 -28 -14 -55 -8 -26 -15 -49 -15 -50 0 -2 40 -1 89 2
461 26 856 381 939 844 9 52 8 297 -2 356 -21 124 -98 300 -181 415 -83 115
-228 240 -351 303 -68 35 -185 76 -260 92 -69 15 -285 30 -295 21z m-550 -197
c-9 -5 -10 -9 -2 -9 7 0 10 -11 8 -28 -3 -25 0 -29 18 -27 13 1 15 0 5 -2 -17
-4 -22 -15 -19 -40 3 -18 -2 -16 -23 9 -15 18 -16 20 -2 15 9 -4 16 -2 16 3 0
6 -8 10 -17 10 -17 1 -17 1 0 11 9 5 17 15 17 21 0 6 -7 5 -17 -3 -17 -13 -17
-12 -4 4 13 16 13 20 1 27 -8 5 -18 6 -24 3 -5 -3 -7 -2 -3 3 3 5 17 10 33 11
19 1 23 -1 13 -8z m-91 -23 c-7 -8 -15 -12 -17 -11 -5 6 10 25 20 25 5 0 4 -6
-3 -14z m190 -18 c6 -1 12 -6 12 -11 0 -5 -8 -6 -17 -2 -10 4 -26 8 -35 9 -10
1 -20 5 -24 8 -3 4 7 4 23 2 15 -3 34 -5 41 -6z m-162 -15 c-10 -11 -37 -12
-30 -2 3 5 12 9 21 9 9 0 13 -3 9 -7z m-2 -52 c-2 -3 -12 3 -22 13 -16 17 -16
18 5 5 12 -7 20 -15 17 -18z m148 14 c14 0 20 -15 6 -15 -9 0 -22 8 -29 17
-12 15 -12 16 1 8 8 -6 18 -10 22 -10z m-82 -51 c-6 -6 -7 -14 -4 -17 10 -9
13 -87 4 -87 -4 0 -8 10 -8 23 1 47 -6 93 -16 106 -9 12 -8 12 11 1 15 -10 19
-18 13 -26z m-30 2 c0 -3 -4 -8 -10 -11 -5 -3 -10 -1 -10 4 0 6 5 11 10 11 6
0 10 -2 10 -4z m115 -6 c3 -6 -4 -10 -17 -10 -18 0 -20 2 -8 10 19 12 18 12
25 0z m-51 -8 c3 -5 -1 -9 -9 -9 -8 0 -15 4 -15 9 0 4 4 8 9 8 6 0 12 -4 15
-8z"/>
<path d="M915 1714 c-227 -54 -422 -244 -480 -469 -99 -378 151 -754 537 -809
143 -21 286 5 406 71 159 88 275 237 318 407 13 53 23 71 48 88 91 64 119 152
77 244 -65 143 -277 143 -342 0 -37 -81 -13 -178 57 -231 39 -30 40 -44 7
-131 -46 -119 -139 -215 -265 -274 -77 -36 -119 -44 -223 -44 -142 0 -249 47
-355 153 -100 101 -150 219 -150 356 1 78 12 140 37 200 141 333 568 425 833
178 29 -27 37 -30 50 -20 15 13 52 31 83 41 28 9 21 21 -48 84 -76 70 -172
123 -270 150 -85 23 -234 26 -320 6z m676 -511 c13 -16 12 -17 -3 -4 -17 13
-22 21 -14 21 2 0 10 -8 17 -17z m231 -16 c7 -46 -3 -65 -35 -70 -33 -5 -107
27 -114 49 -6 18 104 56 134 46 6 -2 13 -13 15 -25z m-193 -10 c8 -11 7 -18
-7 -31 -17 -15 -19 -15 -19 1 -1 20 4 43 10 43 3 0 10 -6 16 -13z m-119 -51
c0 -3 -4 -8 -10 -11 -5 -3 -10 -1 -10 4 0 6 5 11 10 11 6 0 10 -2 10 -4z m40
-6 c0 -5 -5 -10 -11 -10 -5 0 -7 5 -4 10 3 6 8 10 11 10 2 0 4 -4 4 -10z m35
0 c-3 -5 -12 -10 -18 -10 -7 0 -6 4 3 10 19 12 23 12 15 0z"/>
<path d="M1715 1170 c-31 -8 -30 -9 23 -16 23 -3 32 0 30 8 -5 15 -17 17 -53
8z"/>
<path d="M132 1523 c-30 -66 -70 -178 -78 -218 -2 -10 -7 -37 -11 -60 -10 -53
-9 -276 1 -340 22 -134 99 -312 187 -432 69 -94 200 -212 297 -268 1 -1 4 -15
6 -31 13 -110 104 -182 217 -172 140 14 217 169 145 292 -32 55 -85 87 -156
93 -45 4 -63 0 -101 -20 -44 -24 -48 -24 -80 -9 -58 27 -219 198 -266 282
-138 245 -155 525 -48 782 14 35 28 68 31 75 3 6 -3 14 -13 17 -10 3 -36 22
-56 41 -20 19 -39 35 -41 35 -1 0 -17 -30 -34 -67z m593 -1213 c4 0 13 7 19
16 11 14 51 10 42 -5 -3 -4 -1 -13 4 -21 7 -11 12 -11 23 -2 21 18 45 -11 27
-33 -10 -12 -8 -16 14 -25 30 -11 33 -27 9 -45 -16 -12 -16 -14 0 -30 20 -19
14 -35 -12 -35 -25 0 -32 -10 -21 -30 12 -22 -15 -36 -35 -20 -10 8 -19 3 -35
-17 -11 -15 -23 -23 -26 -18 -16 36 -23 40 -44 27 -24 -14 -44 -7 -36 14 5 14
-27 38 -37 27 -12 -12 -19 28 -7 42 14 16 5 35 -16 35 -8 0 -14 4 -14 9 0 11
30 36 30 25 0 -5 4 -2 10 6 5 9 5 19 -2 28 -14 17 4 36 35 37 14 0 21 5 19 14
-5 21 21 33 34 16 6 -8 15 -15 19 -15z"/>
<path d="M683 265 c-12 -8 -27 -31 -33 -49 -14 -44 6 -88 47 -105 49 -20 92
-2 118 48 11 22 11 32 -2 62 -21 55 -84 76 -130 44z"/>
<path d="M1010 1375 c-70 -14 -109 -35 -160 -85 -59 -58 -83 -119 -83 -210 0
-62 5 -84 27 -128 53 -105 142 -163 257 -167 230 -9 384 229 280 433 -59 117
-195 183 -321 157z m140 -123 c58 -24 104 -103 103 -180 -1 -150 -173 -234
-304 -148 -38 26 -77 95 -80 143 -4 63 28 130 83 172 49 37 128 42 198 13z"/>
<path d="M987 1244 c-25 -13 -27 -18 -15 -32 12 -15 11 -16 -6 -2 -16 13 -20
12 -32 -5 -10 -14 -11 -22 -3 -29 8 -8 13 -7 16 2 7 18 30 15 37 -5 4 -10 4
-14 0 -10 -4 4 -15 0 -25 -9 -11 -10 -19 -12 -24 -5 -3 6 -11 11 -18 11 -6 0
-2 -6 9 -14 21 -16 16 -26 -13 -31 -10 -1 -17 -8 -15 -14 1 -6 -2 -11 -8 -11
-26 0 4 -96 42 -137 12 -13 25 -23 30 -23 12 0 0 57 -18 84 -14 23 -10 56 7
56 4 0 24 -11 43 -24 l35 -23 -25 -48 c-30 -56 -25 -65 39 -72 88 -10 166 42
191 128 15 54 11 75 -15 82 -16 4 -18 3 -9 -8 8 -10 8 -15 0 -20 -6 -4 -18 1
-25 11 -8 11 -15 15 -15 10 0 -5 7 -17 16 -27 10 -11 13 -23 7 -31 -4 -7 -13
-29 -18 -48 -14 -48 -45 -54 -45 -8 0 39 -12 61 -36 64 -27 4 -35 26 -18 52 8
12 12 27 9 32 -3 6 -1 10 5 10 7 0 9 9 5 23 -4 13 -3 17 2 10 12 -16 53 -5 53
14 0 13 -3 13 -15 3 -9 -7 -18 -11 -20 -8 -3 3 2 11 11 18 13 11 19 11 36 1
16 -10 19 -10 16 1 -13 40 -137 61 -191 32z m77 -9 c-3 -8 -14 -17 -25 -20
-10 -4 -19 -11 -19 -16 0 -6 -5 -7 -10 -4 -6 4 -8 10 -5 15 3 5 0 12 -7 16
-14 9 14 22 49 23 16 1 21 -3 17 -14z"/>
<path d="M1133 1153 c-18 -2 -33 -9 -33 -14 0 -6 5 -7 10 -4 6 3 10 1 10 -4 0
-6 15 -11 33 -11 24 0 28 3 17 10 -13 9 -13 11 0 20 8 5 11 9 5 8 -5 -1 -25
-3 -42 -5z"/>
<path d="M1196 1145 c4 -8 8 -15 10 -15 2 0 4 7 4 15 0 8 -4 15 -10 15 -5 0
-7 -7 -4 -15z"/>
</g>
</svg>
